<?xml version="1.0" encoding="UTF-8"?>
<svg version="1.1" xmlns="http://www.w3.org/2000/svg" width="500" height="500">
<path d="M0 0 C165 0 330 0 500 0 C500 165 500 330 500 500 C335 500 170 500 0 500 C0 335 0 170 0 0 Z " fill="#FEFEFE" transform="translate(0,0)"/>
<path d="M0 0 C165 0 330 0 500 0 C500 165 500 330 500 500 C335 500 170 500 0 500 C0 335 0 170 0 0 Z M196 36 C194.85917969 36.26167969 193.71835938 36.52335937 192.54296875 36.79296875 C169.03684907 42.31314901 145.55665159 53.89584302 126 68 C125.04222656 68.68449219 124.08445312 69.36898437 123.09765625 70.07421875 C104.51310107 83.67684324 87.59302622 99.35922335 74 118 C73.23300781 119.04542969 72.46601562 120.09085937 71.67578125 121.16796875 C50.90606701 150.34706118 38.09045925 182.72665286 32 218 C31.87012695 218.69996094 31.74025391 219.39992187 31.60644531 220.12109375 C27.88711258 240.49928656 29.09766985 262.57174191 32 283 C32.16145508 284.23532471 32.16145508 284.23532471 32.32617188 285.49560547 C38.15247812 328.69091832 58.90436366 369.76452134 88.5703125 401.3828125 C90.51782355 403.48061379 92.37088035 405.60309773 94.1875 407.8125 C97.43484193 411.63775871 101.17462698 414.76898245 105 418 C105.91394531 418.81339844 106.82789062 419.62679688 107.76953125 420.46484375 C153.18168484 460.56841763 211.53735658 475.77639157 270.94921875 472.85498047 C276.01747351 472.51022128 280.99609408 471.86533711 286 471 C286.7734375 470.87109375 287.546875 470.7421875 288.34375 470.609375 C329.55169049 463.56751175 367.79580724 445.9217845 399 418 C400.35351562 416.81083984 400.35351562 416.81083984 401.734375 415.59765625 C410.68318681 407.66575487 418.57785174 399.38248309 426 390 C426.81726563 388.98808594 427.63453125 387.97617187 428.4765625 386.93359375 C434.77389257 379.04665824 440.05867918 370.79129418 445 362 C445.4021875 361.29665527 445.804375 360.59331055 446.21875 359.86865234 C453.65290744 346.7804697 459.1215587 333.22288308 464 319 C464.26683594 318.23478027 464.53367187 317.46956055 464.80859375 316.68115234 C469.22271935 303.8115902 471.21387544 290.45392523 473 277 C473.15903809 275.80697266 473.15903809 275.80697266 473.32128906 274.58984375 C478.5235987 229.98796324 468.96663186 185.46140818 448 146 C447.52175781 145.05382812 447.04351562 144.10765625 446.55078125 143.1328125 C440.22567226 130.91755903 431.90494189 119.45519493 423 109 C422.36320312 108.25234375 421.72640625 107.5046875 421.0703125 106.734375 C409.85134071 93.94898074 397.84758416 81.91595635 384 72 C383.34370605 71.52643066 382.68741211 71.05286133 382.01123047 70.56494141 C362.57037968 56.68906271 341.59578447 46.61970951 319 39 C317.97471191 38.65267822 317.97471191 38.65267822 316.92871094 38.29833984 C278.85658448 25.70683064 234.40940738 25.05606544 196 36 Z " fill="#FEFEFE" transform="translate(0,0)"/>
<path d="M0 0 C44.88 0 89.76 0 136 0 C136 17.82 136 35.64 136 54 C109.27 54 82.54 54 55 54 C55 71.82 55 89.64 55 108 C77.77 108 100.54 108 124 108 C124 126.15 124 144.3 124 163 C101.23 163 78.46 163 55 163 C55 217.78 55 272.56 55 329 C40 329 40 329 36.125 325.625 C35.06931279 324.09290011 34.02859491 322.55041867 33 321 C31.52458603 319.31152986 30.02321352 317.64547815 28.5 316 C25.84886006 313.06321535 23.21709829 310.11397458 20.625 307.125 C17.64083314 303.69667808 14.57811516 300.34379199 11.5 297 C7.85588284 293.04135351 4.26086345 289.04823312 0.734375 284.984375 C-2.79500714 280.94625309 -6.40634226 276.98085319 -10 273 C-11.50028679 271.33359149 -13.00028872 269.66692647 -14.5 268 C-15.2425 267.175 -15.985 266.35 -16.75 265.5 C-23.5 258 -23.5 258 -25.7421875 255.5078125 C-27.26708244 253.81407106 -28.79315402 252.12138831 -30.3203125 250.4296875 C-33.69912708 246.68435744 -37.06895965 242.93481793 -40.375 239.125 C-43.82783819 235.158251 -47.38877381 231.29317331 -50.95043945 227.42456055 C-54.08517052 224.01401194 -57.15726302 220.55840884 -60.19140625 217.05859375 C-62.4301125 214.5104335 -64.71410212 212.00589407 -67 209.5 C-69.84524228 206.38092989 -72.6719958 203.25244609 -75.4375 200.0625 C-78.87980546 196.0968987 -82.43430235 192.23614981 -86.00561523 188.38696289 C-89.12985072 185.00431069 -92.04342242 181.5478931 -95 178 C-95.33 225.85 -95.66 273.7 -96 323 C-114.15 323 -132.3 323 -151 323 C-151 232.58 -151 142.16 -151 49 C-152.32 48.34 -153.64 47.68 -155 47 C-157.50373211 44.54690517 -157.97283471 43.29990478 -158.29296875 39.765625 C-158.24076172 38.02539062 -158.24076172 38.02539062 -158.1875 36.25 C-158.16042969 35.07953125 -158.13335937 33.9090625 -158.10546875 32.703125 C-158.07066406 31.81109375 -158.03585938 30.9190625 -158 30 C-157.34 29.67 -156.68 29.34 -156 29 C-155.67 30.32 -155.34 31.64 -155 33 C-153.68 33 -152.36 33 -151 33 C-151.04640625 32.05898437 -151.0928125 31.11796875 -151.140625 30.1484375 C-151.47219993 18.70910242 -151.47219993 18.70910242 -149.0625 15.125 C-148.381875 14.42375 -147.70125 13.7225 -147 13 C-146.67 13 -146.34 13 -146 13 C-145.92652344 14.15628906 -145.92652344 14.15628906 -145.8515625 15.3359375 C-145.77679688 16.33882812 -145.70203125 17.34171875 -145.625 18.375 C-145.55539063 19.37273437 -145.48578125 20.37046875 -145.4140625 21.3984375 C-145.23636036 24.15508879 -145.23636036 24.15508879 -143 26 C-139.91652174 26.16681109 -139.91652174 26.16681109 -137 26 C-136.34 24.68 -135.68 23.36 -135 22 C-133.55792059 24.88415883 -133.90605113 27.41721528 -133.9375 30.625 C-133.94652344 31.81351563 -133.95554688 33.00203125 -133.96484375 34.2265625 C-133.97644531 35.14179687 -133.98804688 36.05703125 -134 37 C-132.68 37.33 -131.36 37.66 -130 38 C-129.67 36.35 -129.34 34.7 -129 33 C-128.67 33 -128.34 33 -128 33 C-127.86253848 34.51818611 -127.76690603 36.04017303 -127.6875 37.5625 C-127.62949219 38.40941406 -127.57148438 39.25632813 -127.51171875 40.12890625 C-128.20740699 44.21955313 -130.43247235 46.82228653 -133 50 C-131.85724609 51.21623047 -131.85724609 51.21623047 -130.69140625 52.45703125 C-124.94868485 58.60334068 -119.41486253 64.8249189 -114.14453125 71.38671875 C-112.00125044 73.99847623 -109.7761967 76.50365302 -107.5 79 C-103.58108748 83.29991791 -99.90829131 87.75919547 -96.25 92.28125 C-93.35524289 95.77908151 -90.30410461 99.11785404 -87.24609375 102.47265625 C-84.93812402 105.06962393 -82.74444137 107.73404013 -80.5625 110.4375 C-77.48663412 114.24087503 -74.31246834 117.90082652 -71 121.5 C-66.88621091 125.9698512 -63.02912703 130.59044893 -59.21484375 135.31640625 C-57.04367173 137.94708557 -54.79758643 140.47942424 -52.5 143 C-49.40444804 146.39598682 -46.44848793 149.86171531 -43.5625 153.4375 C-40.48663412 157.24087503 -37.31246834 160.90082652 -34 164.5 C-29.88621091 168.9698512 -26.02912703 173.59044893 -22.21484375 178.31640625 C-19.34633362 181.79200847 -16.31675957 185.10415279 -13.28125 188.43359375 C-9.98474735 192.14215923 -6.86764531 195.98848766 -3.75 199.84765625 C-2.17822462 201.85596185 -2.17822462 201.85596185 -1 203 C-0.67 136.01 -0.34 69.02 0 0 Z " fill="#242424" transform="translate(265,87)"/>
<path d="M0 0 C1.05960937 0.74765625 2.11921875 1.4953125 3.2109375 2.265625 C21.06907436 15.29597158 37.59041326 30.48160674 50.74121094 48.296875 C51.97069396 49.96034931 53.22216212 51.60527552 54.4765625 53.25 C66.60787204 69.41225221 75.5994222 87.25775579 83 106 C83.47953125 107.18335938 83.9590625 108.36671875 84.453125 109.5859375 C97.51146515 143.71944688 101.19351437 183.91604672 95 220 C94.77882118 221.42951362 94.55881593 222.8592092 94.33984375 224.2890625 C92.89329053 233.40234782 90.84580815 242.21297915 88 251 C87.73590332 251.82741699 87.47180664 252.65483398 87.19970703 253.50732422 C76.67443377 286.14207143 60.51781335 315.65628762 36.55322266 340.39550781 C35.44269586 341.54269142 34.33894288 342.69644797 33.23974609 343.85449219 C23.56975006 354.02314829 13.43160751 362.8671885 2 371 C1.38334473 371.44537109 0.76668945 371.89074219 0.13134766 372.34960938 C-46.39465688 405.73217545 -106.96019848 418.71614895 -163.36132812 410.44970703 C-198.50004911 404.461039 -232.21823551 391.09470938 -261 370 C-261.79784912 369.41847168 -261.79784912 369.41847168 -262.61181641 368.82519531 C-271.2980786 362.45718202 -279.23641964 355.45533109 -287 348 C-287.51449707 347.51273437 -288.02899414 347.02546875 -288.55908203 346.5234375 C-325.58485598 311.36599045 -346.81333779 262.72401083 -353.62426758 212.74560547 C-353.92245922 210.56661703 -354.25087093 208.39176778 -354.58984375 206.21875 C-357.13648617 185.02958974 -355.25546018 162.78077226 -351 142 C-350.81808105 141.07977051 -350.63616211 140.15954102 -350.44873047 139.21142578 C-340.30829816 88.96236666 -311.37272471 41.66596952 -271 10 C-270.0615625 9.23300781 -269.123125 8.46601562 -268.15625 7.67578125 C-239.28992053 -15.4247221 -205.10454787 -29.81667758 -169 -37 C-168.19127441 -37.16371094 -167.38254883 -37.32742187 -166.54931641 -37.49609375 C-109.91672465 -48.48433765 -46.69184354 -33.18593838 0 0 Z M-185 -29 C-186.14082031 -28.73832031 -187.28164062 -28.47664063 -188.45703125 -28.20703125 C-211.96315093 -22.68685099 -235.44334841 -11.10415698 -255 3 C-255.95777344 3.68449219 -256.91554688 4.36898437 -257.90234375 5.07421875 C-276.48689893 18.67684324 -293.40697378 34.35922335 -307 53 C-307.76699219 54.04542969 -308.53398437 55.09085937 -309.32421875 56.16796875 C-330.09393299 85.34706118 -342.90954075 117.72665286 -349 153 C-349.12987305 153.69996094 -349.25974609 154.39992187 -349.39355469 155.12109375 C-353.11288742 175.49928656 -351.90233015 197.57174191 -349 218 C-348.83854492 219.23532471 -348.83854492 219.23532471 -348.67382812 220.49560547 C-342.84752188 263.69091832 -322.09563634 304.76452134 -292.4296875 336.3828125 C-290.48217645 338.48061379 -288.62911965 340.60309773 -286.8125 342.8125 C-283.56515807 346.63775871 -279.82537302 349.76898245 -276 353 C-275.08605469 353.81339844 -274.17210937 354.62679688 -273.23046875 355.46484375 C-227.81831516 395.56841763 -169.46264342 410.77639157 -110.05078125 407.85498047 C-104.98252649 407.51022128 -100.00390592 406.86533711 -95 406 C-94.2265625 405.87109375 -93.453125 405.7421875 -92.65625 405.609375 C-51.44830951 398.56751175 -13.20419276 380.9217845 18 353 C19.35351562 351.81083984 19.35351562 351.81083984 20.734375 350.59765625 C29.68318681 342.66575487 37.57785174 334.38248309 45 325 C45.81726563 323.98808594 46.63453125 322.97617187 47.4765625 321.93359375 C53.77389257 314.04665824 59.05867918 305.79129418 64 297 C64.4021875 296.29665527 64.804375 295.59331055 65.21875 294.86865234 C72.65290744 281.7804697 78.1215587 268.22288308 83 254 C83.26683594 253.23478027 83.53367187 252.46956055 83.80859375 251.68115234 C88.22271935 238.8115902 90.21387544 225.45392523 92 212 C92.15903809 210.80697266 92.15903809 210.80697266 92.32128906 209.58984375 C97.5235987 164.98796324 87.96663186 120.46140818 67 81 C66.52175781 80.05382812 66.04351562 79.10765625 65.55078125 78.1328125 C59.22567226 65.91755903 50.90494189 54.45519493 42 44 C41.36320312 43.25234375 40.72640625 42.5046875 40.0703125 41.734375 C28.85134071 28.94898074 16.84758416 16.91595635 3 7 C2.34370605 6.52643066 1.68741211 6.05286133 1.01123047 5.56494141 C-18.42962032 -8.31093729 -39.40421553 -18.38029049 -62 -26 C-63.02528809 -26.34732178 -63.02528809 -26.34732178 -64.07128906 -26.70166016 C-102.14341552 -39.29316936 -146.59059262 -39.94393456 -185 -29 Z " fill="#101010" transform="translate(381,65)"/>
</svg>
